<svg id="Layer_1" data-name="Layer 1" xmlns="http://www.w3.org/2000/svg" viewBox="0 0 1224 792"><defs><style>.cls-1{fill:#62cdf6;stroke:#62cdf6;}.cls-1,.cls-2{stroke-miterlimit:10;}.cls-2{fill:none;stroke:#facd98;stroke-width:15px;}.cls-3{fill:#f26a5b;}.cls-4{fill:#f9f9f9;}</style></defs><title>SLAMMIES_CANIBAL</title><path class="cls-1" d="M157.35,378c7.78-21.22,24.62-32.52,44.12-41.57,52.31-24.29,108.07-35.34,164.61-43A1655.09,1655.09,0,0,1,644.56,279c105.23,3.5,208.65,17.85,306,61.36,31.17,13.93,60.81,30.52,85.17,55.13v14.64c-9.57,8.79-18.25,18.87-28.86,26.15-56.44,38.68-120.2,59.25-186.42,73.22-90.7,19.14-182.62,23.22-274.88,20.05-86.72-3-173.47-8.06-258-29-32.36-8-63.57-21.05-94.77-33.16-16.81-6.53-29.14-19.14-35.36-36.74Z"/><line class="cls-2" x1="1035.69" y1="401.93" x2="157.35" y2="404.35"/><path class="cls-3" d="M509.87,485.42c-4.66-.09-9.46-.1-14.1-.12q-3.86,0-7.69,0a30.46,30.46,0,0,1-5.27-.47,16.94,16.94,0,0,1-14-15,30.87,30.87,0,0,1-.2-4.39v-.36c0-2.51.06-5,.09-7.51.06-4.63.12-9.42.13-14.09q0-9.5,0-19c0-10.58,0-21.52.06-32.31,0-4.29.37-8.37.7-12.32.12-1.45.24-2.91.34-4.37.21-2.94.43-5.88.64-8.82.4-5.49.8-11,1.15-16.45a15.7,15.7,0,0,1,16-15h.71c6.24,0,12.72,0,19.28-.1,2,0,3.92-.08,5.88-.13,1.68-.05,3.36-.1,5-.12h.3a20.83,20.83,0,0,1,4.32.49l.18,0a20.91,20.91,0,0,1,6.79,2.5c2.6-5.56,7.74-9.07,14.65-9.73,2.11-.2,4.12-.23,6-.23h26.71l.71,0c8,.28,12.47,4.41,14.39,6.85A18.47,18.47,0,0,1,596,350.12a24,24,0,0,0,0,4.94c0,.6.08,1.21.11,1.81l0,.44c.05.75.1,1.69.1,2.75q0,13,0,25.93v20.1q0,22.82,0,45.62c0,1.07.05,2.26.11,3.52s.11,2.67.13,4.13a21.37,21.37,0,0,1-1.22,7.09,17,17,0,0,1-14.92,11.66l-.35,0c-2.66.18-5.41.37-8.35.38h-.78c-4.47,0-8.95-.11-12.79-.2a45.72,45.72,0,0,1-6.69-.62,16.5,16.5,0,0,1-14.1-16.54c0-3.1,0-6.2,0-9.3v-.22l-1.59,0c-1.73,0-3.46.07-5.18.07h-1.89q0,3.13,0,6.28c0,1.07,0,2.14.09,3.2.07,2,.16,4.23.07,6.61-.42,10.86-7.41,17.6-18.25,17.6Z"/><path class="cls-3" d="M619.05,481.29c-4.67-.08-9.47-.1-14.11-.11l-7.68,0a29.5,29.5,0,0,1-5.27-.47,16.93,16.93,0,0,1-14-15,29.87,29.87,0,0,1-.2-4.42V461c0-2.49.05-5,.09-7.5.06-4.63.12-9.42.13-14.08q0-9.53,0-19.05c0-10.57,0-21.5.06-32.27,0-4.29.37-8.37.7-12.32.12-1.46.24-2.92.34-4.38.21-3,.43-5.9.64-8.86.4-5.47.8-10.94,1.15-16.41a15.69,15.69,0,0,1,16-15h.49c6.31,0,12.87,0,19.51-.11,1.94,0,3.88-.08,5.82-.13l5.1-.12h.3a20.76,20.76,0,0,1,4.3.48l.18,0a21.12,21.12,0,0,1,6.8,2.5c2.6-5.56,7.75-9.06,14.66-9.73,2.12-.2,4.14-.23,6-.23h27.52A18,18,0,0,1,705.16,346a24.14,24.14,0,0,0,0,4.95c0,.6.08,1.2.11,1.8l0,.44c0,.75.1,1.68.1,2.73v45.64q0,23,0,46c0,1.06,0,2.25.1,3.5s.12,2.69.14,4.15a21.32,21.32,0,0,1-1.22,7.08A17,17,0,0,1,689.56,474l-.39,0c-2.65.18-5.38.36-8.31.37h-.73c-4.1,0-8.1-.08-12.84-.2a47.2,47.2,0,0,1-6.69-.61A16.5,16.5,0,0,1,646.5,457c0-3.14,0-6.29,0-9.43v-.1l-1.6,0c-1.73,0-3.46.08-5.18.08l-1.88,0c0,2.09,0,4.19,0,6.28,0,1.07,0,2.14.09,3.21.08,2,.17,4.22.08,6.61-.42,10.85-7.41,17.6-18.25,17.6Z"/><path class="cls-3" d="M788.4,474.12V474H774.7c-2.9,0-5.76-.05-8.42-.11a18.48,18.48,0,0,1-5.15-.89,16.93,16.93,0,0,1-12.34-17.33c.16-3.38.38-6.68.62-10.06l.25-3.48q.76-11,1.59-22.07.56-7.33,1.16-14.67c.39-4.91.79-9.82,1.16-14.73.51-6.7,1-13.41,1.48-20.12L755.8,360q.45-6.1.91-12.2l.4-5.5c0-.23,0-.47,0-.71.05-.92.11-2.06.3-3.38,1.3-9,7.62-15,16.5-15.57,2.47-.16,4.85-.18,6.65-.18l4.13,0c4,0,8.1,0,12.14.05l10.78,0,9.54,0,15.1,0a28.58,28.58,0,0,1,6.5.87,19.24,19.24,0,0,1,15.09,19.58c-.1,3.34-.44,6.44-.77,9.43l-.07.65c-.41,3.74-.85,7.48-1.28,11.21-.28,2.36-.55,4.71-.82,7.07l-.78,7c-.38,3.36-.75,6.73-1.14,10.09a22.68,22.68,0,0,1-1.34,5.33,17.93,17.93,0,0,1-7.9,9.45,19.24,19.24,0,0,1,3.08,10.09c.08,2.28.14,4.55.21,6.82l.07,2.48a14.51,14.51,0,0,1-.07,2q0,.57-.12,1.14a17.58,17.58,0,0,1,11.56,14.31c.32,2.38.42,4.6.51,6.56l0,.66c.07,1.61.12,3.22.16,4.82l0,1.86c0,.46.07,1.2,0,2.11-.45,10.9-7.79,17.93-18.68,17.93Z"/><path class="cls-3" d="M460.77,480.34c-3.79,0-10.82-1.29-15.78-9.87a15.77,15.77,0,0,1-11.94,5.6l-1.65,0c-1,0-2.07,0-3.1,0l-4.22,0q-7.35-.07-14.71-.17H409a30.27,30.27,0,0,1-6.45-.62c-8.66-2-14.12-9.07-13.91-18.16.07-2.93,3.42-34.13,6-56.67,1.76-15.33,3.28-27.73,4.52-36.83.74-5.48,1.36-9.59,1.88-12.6.9-5.13,2.39-13.72,11.75-16.15,4.71-1.23,11.42-1.84,19.95-1.84s17.72.66,22.68,1.64c9.17,1.82,11.37,9.28,14.41,19.61,1.68,5.7,3.89,13.77,6.41,23.36,4.06,15.53,8.52,33.49,11.93,48,1.78,7.64,3.15,13.8,4.06,18.29,1.67,8.28,3.11,15.43-3.67,21.24a48.15,48.15,0,0,1-4.48,3.35l-5,3.35c-2.3,1.53-4.59,3.06-6.87,4.61A19.84,19.84,0,0,1,460.77,480.34Z"/><path class="cls-3" d="M316.23,474.46c-1.13,0-2.26,0-3.4-.07l-1,0c-.73,0-1.46-.07-2.19-.11s-1.13-.07-1.47-.07H270.6l-1.44,0c-.76,0-1.51,0-2.26,0h-.21a17.24,17.24,0,0,1-17.49-14.85c-.27-1.7-.41-3.26-.53-4.64-.08-.86-.15-1.67-.24-2.33-1.08-7.76-2.06-14.62-3-21-.1-.69-.18-1.37-.22-2A16.72,16.72,0,0,1,239.16,417c-.06-1.21-.09-2.22-.09-3.18,0-7.64,0-29.05,0-29.05V378q0-8.55,0-17.08c0-2-.1-4-.21-6.16-.5-10.07,5.52-17.57,15.33-19.12,2.91-.47,5.64-.7,8.29-.92l1.84-.16q9.68-.87,19.36-1.71l5.91-.51q6.69-.58,13.4-1.15l1.29-.11c2.45-.21,5-.42,7.64-.51l.94,0c8.14,0,16.49,5.19,16.82,16.78,0,1.82,0,3.56,0,5.25v1.72l0,7.17.06,28c0,2.2-.07,4.29-.13,6.25a20.25,20.25,0,0,1-.49,3.8c3.68,3.66,5.68,8.76,5.73,14.94,0,1.29-.06,2.47-.11,3.41,0,.5-.07,1-.07,1.5q0,16.73,0,33.44c0,.19,0,.7.07,1.12.06.73.13,1.65.15,2.67.22,10.24-6.51,17.4-16.75,17.81Z"/><path class="cls-3" d="M918.47,474.46c-1.13,0-2.27,0-3.4-.07l-1,0c-.74,0-1.47-.07-2.2-.11s-1.13-.07-1.47-.07H872.84c-.49,0-1,0-1.45,0-.75,0-1.5,0-2.25,0h-.21a17.23,17.23,0,0,1-17.49-14.85c-.28-1.7-.42-3.26-.54-4.64-.07-.86-.15-1.68-.24-2.33-1.1-8-2-14.63-3-21-.1-.69-.17-1.37-.22-2a16.74,16.74,0,0,1-6-12.42c-.07-1.21-.1-2.21-.1-3.17v-36q0-8.44,0-16.89c0-2-.11-4.05-.21-6.16-.5-10.07,5.51-17.57,15.32-19.12,2.91-.46,5.65-.7,8.29-.92l1.84-.16q9.68-.87,19.36-1.71l5.93-.51q6.69-.58,13.38-1.15l1.3-.11c2.44-.21,5-.42,7.64-.51l.94,0c8.13,0,16.49,5.19,16.81,16.79.05,1.82.05,3.56.05,5.25v8.44q0,14.22.06,28.43c0,2.18-.06,4.28-.13,6.25a19.45,19.45,0,0,1-.49,3.8c3.68,3.66,5.69,8.76,5.73,14.94,0,1.3,0,2.47-.11,3.42,0,.5-.06,1-.06,1.5q0,16.71,0,33.43c0,.19,0,.73.07,1.12.05.73.12,1.65.14,2.67.22,10.24-6.51,17.4-16.75,17.81C919.76,474.45,919.12,474.46,918.47,474.46Z"/><path class="cls-3" d="M331.89,477.07c-10.79-.13-18.22-7.51-18.52-18.35-.05-1.92,0-3.74,0-5.51,0-.77,0-1.54,0-2.32V393.28c0-9.34,0-18.67,0-28,0-2.18-.05-4.37-.09-6.56-.05-2.56-.11-5.2-.1-7.88a41.64,41.64,0,0,1,.82-7.75c1.74-9.25,8.71-15,18.2-15h19.31c.79,0,1.59,0,2.39-.05,1.07,0,2.13-.05,3.19-.05,1.35,0,2.56,0,3.71.12a23.39,23.39,0,0,1,8.14,2.27l.51.22A15.83,15.83,0,0,1,378.55,342a19.59,19.59,0,0,1,.38,4.66v70.76l5.54.38,2.74.18c1.75.11,3.5.22,5.25.36a20.37,20.37,0,0,1,4.62.92c8.33,2.55,13.29,9.24,13.28,17.92,0,2.15,0,4.31,0,6.47l0,5v4.26c0,2.24,0,4.48,0,6.73a20.67,20.67,0,0,1-1.14,6.48,16.17,16.17,0,0,1-15.57,11l-6.46,0q-22.32-.09-44.66-.16h-.13c-1.34,0-2.76,0-4.26.09-1.66,0-3.38.11-5.18.11Z"/><path class="cls-3" d="M712.19,481.29c-10.79-.13-18.23-7.51-18.51-18.36-.06-1.93,0-3.76,0-5.54,0-.76,0-1.52,0-2.29V400.74c0-1.06,0-1.14,0-5.63a25,25,0,0,1-.2-3.62,41.84,41.84,0,0,1,.82-7.75,18.43,18.43,0,0,1,18.07-15h19.43c.81,0,1.61,0,2.42,0,1.06,0,2.11-.05,3.17-.05,1.35,0,2.56,0,3.71.12h0c12.51.63,18.1,9.83,18.1,18.66v41.72c0,5.45,0,25.13,0,33.64a18.32,18.32,0,0,1-18.32,18.34H722.62c-1.35,0-2.76,0-4.26.09-1.66.05-3.38.11-5.18.11Z"/><circle class="cls-3" cx="730.52" cy="355.43" r="31.68"/><path class="cls-4" d="M514.27,434.41c0,8.08,0,16.16,0,24.24,0,3.07.29,6.15.17,9.21-.13,3.31-1,3.8-4.32,3.75-7.31-.13-14.63-.1-21.95-.15a15.75,15.75,0,0,1-2.74-.23,2.68,2.68,0,0,1-2.34-2.66,19.4,19.4,0,0,1-.07-2.75c.07-7.24.21-14.47.22-21.71,0-17.08-.07-34.16.06-51.24,0-5.27.64-10.53,1-15.79.59-8.45,1.24-16.9,1.79-25.35.08-1.2.44-1.56,1.61-1.56q10.06,0,20.14-.11c3.67,0,7.34-.19,11-.25a9.58,9.58,0,0,1,1.9.28c2.32.43,4,1.66,4.52,4a64.67,64.67,0,0,1,1.31,8.5A262.67,262.67,0,0,0,529.88,389c.73,4.33,1,8.73,1.64,13.08.36,2.52-.09,2.41,2.76,2.41,2,0,2.27-.09,2.56-2,.91-5.92,1.86-11.84,2.52-17.79.84-7.42,1.42-14.88,2.08-22.32.47-5.26.85-10.52,1.33-15.77.22-2.53,1-3.34,3.48-3.58,2.14-.2,4.31-.16,6.47-.16q12.36,0,24.71,0h.36c3.25.12,4.73,1.75,4.08,5-.71,3.49-.3,6.93-.11,10.39,0,.8.1,1.6.1,2.39q0,15.84,0,31.68,0,30,0,60c0,2.59.21,5.19.24,7.78a7.2,7.2,0,0,1-.46,2.33,2.52,2.52,0,0,1-2.26,1.9c-2.58.17-5.17.36-7.76.36-4.39,0-8.78-.08-13.17-.19a32.79,32.79,0,0,1-4.64-.42,2.13,2.13,0,0,1-2.11-2.45c0-4.28,0-8.56,0-12.84,0-6.56.09-13.12,0-19.68-.06-4.39-.34-8.78-.57-13.17a47.39,47.39,0,0,0-.51-4.89c0-.36-.55-.71-.93-.94s-.62,0-.94,0c-2.06.11-2.29.34-2.4,2.38-.39,7.56-1.06,15.06-3.71,22.26-.69,1.88-1.6,3-3.68,3.07-3.71,0-7.42.22-11.12.1-2.12-.07-3-.91-3.31-3a65.39,65.39,0,0,1-.72-7.14,201.27,201.27,0,0,0-4.31-30.11c-.15-.73-.45-1.06-1.18-1-.28,0-.56,0-.84,0-1.83.09-2.41.41-2.74,2.19a31.67,31.67,0,0,0-.53,5.58c0,10,0,20,0,30Z"/><path class="cls-4" d="M623.44,430.28c0,8.08,0,16.16,0,24.24,0,3.07.29,6.15.18,9.21-.13,3.31-1,3.81-4.32,3.75-7.32-.13-14.63-.1-21.95-.15a15.75,15.75,0,0,1-2.74-.23,2.67,2.67,0,0,1-2.34-2.66,21,21,0,0,1-.08-2.75c.08-7.24.22-14.47.23-21.71,0-17.08-.07-34.16.06-51.24,0-5.26.64-10.52,1-15.79.59-8.45,1.24-16.9,1.79-25.35.08-1.2.44-1.56,1.6-1.56q10.08,0,20.15-.1c3.67,0,7.34-.19,11-.26a9.38,9.38,0,0,1,1.89.28c2.33.44,4,1.66,4.53,4.05a64.52,64.52,0,0,1,1.31,8.49,262.67,262.67,0,0,0,3.28,26.39c.73,4.33,1,8.73,1.64,13.09.36,2.51-.09,2.4,2.76,2.4,2,0,2.27-.09,2.56-2,.91-5.92,1.86-11.84,2.52-17.79.84-7.42,1.42-14.88,2.08-22.32.47-5.25.85-10.52,1.32-15.77.23-2.52,1-3.33,3.49-3.58,2.14-.2,4.31-.15,6.47-.16H687c3.25.11,4.73,1.74,4.07,5-.7,3.48-.3,6.92-.1,10.38,0,.8.1,1.6.1,2.4q0,15.84,0,31.68,0,30,0,60c0,2.59.21,5.19.24,7.78a7.31,7.31,0,0,1-.46,2.34,2.55,2.55,0,0,1-2.26,1.89c-2.58.18-5.17.36-7.76.37-4.39,0-8.78-.09-13.17-.2A32.78,32.78,0,0,1,663,460a2.14,2.14,0,0,1-2.11-2.46c0-4.28,0-8.56,0-12.84,0-6.56.09-13.12,0-19.67,0-4.4-.33-8.79-.56-13.18a46.92,46.92,0,0,0-.51-4.88c-.05-.36-.55-.72-.93-.94a1.84,1.84,0,0,0-.94,0c-2.06.1-2.3.34-2.4,2.38-.39,7.56-1.06,15.05-3.71,22.25-.69,1.88-1.6,3.05-3.68,3.07-3.71,0-7.42.22-11.13.1-2.11-.06-3-.91-3.3-3a65.83,65.83,0,0,1-.72-7.15,201,201,0,0,0-4.31-30.1c-.15-.73-.45-1.07-1.18-1h-.84c-1.84.09-2.41.41-2.74,2.19a31.69,31.69,0,0,0-.53,5.59c0,10,0,20,0,30Z"/><path class="cls-4" d="M804,460.14H775.9c-2.71,0-5.42-.05-8.13-.11a5.3,5.3,0,0,1-1.29-.27,2.56,2.56,0,0,1-2.12-2.91c.15-3.23.37-6.46.6-9.69.59-8.49,1.18-17,1.83-25.47.75-9.8,1.57-19.6,2.32-29.4.77-10.2,1.49-20.41,2.23-30.61L772.66,344c.07-1,.09-2.08.24-3.11.31-2.13,1.06-3.1,3.19-3.24,3.26-.22,6.53-.14,9.8-.14,7.64,0,15.28.08,22.91.1,8.2,0,16.4,0,24.6,0a14.45,14.45,0,0,1,3.19.46c2.7.66,4.17,2.37,4.09,5.15-.09,3-.44,6-.77,8.95-.66,6.08-1.4,12.15-2.09,18.22-.64,5.68-1.26,11.36-1.92,17a7.91,7.91,0,0,1-.53,2,3.46,3.46,0,0,1-3.49,2.43c-4.56,0-9.11-.13-13.67-.13-3.63,0-7.27,0-10.9.2-2.53.13-3.59,1.23-3.85,3.75-.3,3-.6,6-.66,9.06,0,2,.94,3.12,3,3.46,3.11.51,6.26.83,9.39,1.19,3.65.42,7.32.73,11,1.2,2.68.35,3.44,1.27,3.54,3.92q.15,4.62.28,9.22c0,.12,0,.24,0,.36-.25,3.57-1.28,4.64-4.84,4.59s-6.94-.35-10.42-.46a23.6,23.6,0,0,0-4.53.17c-2.8.46-4,2.64-2.89,5.24,1.58,3.69,4.35,5.92,8.48,6,4.76.05,9.52-.13,14.27-.11,2.83,0,5.67.15,8.49.38a3.1,3.1,0,0,1,3,2.85c.27,2,.33,4,.43,6,.1,2.19.13,4.39.2,6.58,0,.32.05.64,0,1-.13,3.14-1.14,4.11-4.29,4.11H804Z"/><path class="cls-4" d="M434.22,448.42c0,4.16,0,8.31,0,12.47,0,1-.56,1.36-1.4,1.37-1.8,0-3.59,0-5.39,0-5.95-.07-11.9-.12-17.86-.21a19,19,0,0,1-3.92-.28c-2-.45-2.72-1.68-2.68-3.76.08-3.31,11.27-108.1,13.4-108.66,8.69-2.25,29.35-1.37,36.21,0,2.36.47,28.19,104.09,26.57,105.49a36.74,36.74,0,0,1-3.18,2.35c-4,2.68-8,5.3-11.93,8-3.12,2.14-4.83,1.83-6.69-1.48q-7.58-13.53-15.09-27.1c-.42-.76-.7-1.61-1.07-2.4a24.71,24.71,0,0,0-1.3-2.69c-.56-.93-1.23-1.86-2.55-1.62a3.61,3.61,0,0,0-2.65,2.75c-.31,5.25-.56,10.51-.84,15.77Zm2.93-45.82a47.75,47.75,0,0,0-6.18.57,4.31,4.31,0,0,0-3.66,4.05c-.19,1.83-.23,3.67-.27,5.5a6.86,6.86,0,0,0,.26,1.9,2.52,2.52,0,0,0,3.21,2.08c.44-.07,8.16-2,11.67-2.58a13.36,13.36,0,0,0,6.63-2.55,6.41,6.41,0,0,0,1.88-6.75c-.88-2.35-3-2.23-4.92-2.29-.68,0-1.36.06-2,.06Z"/><path class="cls-4" d="M253.46,385.36c0-8,0-15.92,0-23.87,0-2.28-.11-4.56-.22-6.83-.14-2.61.57-3.77,3.19-4.18,3-.48,6.1-.69,9.17-1,7.72-.7,15.44-1.36,23.16-2,5.14-.45,10.27-.9,15.41-1.32,2.74-.23,5.49-.49,8.24-.58,2.35-.09,2.8.4,2.86,2.78.07,2.19,0,4.39,0,6.59q0,17.57.08,35.14c0,1.92-.06,3.84-.12,5.76-.08,2.2-1,3.21-3.25,3.32-1.28.06-2.56-.08-3.84-.08-5.83,0-11.67,0-17.5.13a6.15,6.15,0,0,0-3.31,1.41c-1.66,1.3-1.49,3.14.17,4.46a8.57,8.57,0,0,0,5,1.52c5.9.45,11.8.8,17.7,1.24a36.25,36.25,0,0,1,5,.7c3.9.85,5.29,2.61,5.32,6.62,0,1.6-.18,3.2-.18,4.79q0,16.74,0,33.48c0,1.35.19,2.71.22,4.06.05,2.34-.56,3-2.92,3.12-1.79.07-3.6,0-5.39-.07-1.36,0-2.72-.18-4.07-.19H270.59c-1.27,0-2.55.07-3.83.07-1.95,0-3-.8-3.34-2.73-.35-2.21-.42-4.45-.73-6.67q-1.45-10.56-3-21.1c-.41-2.77.23-3.86,3-4.09a62.79,62.79,0,0,1,6.58,0c5.19.1,10.38.31,15.58.33,4.27,0,8.54-.09,12.8-.36a7.12,7.12,0,0,0,3.44-1.47c1.53-1.11,1.43-2.72,0-4a5.43,5.43,0,0,0-3.83-1.13q-18.65.09-37.3.21a39.54,39.54,0,0,1-4.07-.14c-1.74-.16-2.28-.79-2.38-2.53,0-.8-.07-1.59-.07-2.39Q253.46,399.88,253.46,385.36Z"/><path class="cls-4" d="M855.7,385.36c0-8,0-15.92,0-23.87,0-2.28-.11-4.56-.22-6.83-.13-2.61.58-3.77,3.19-4.18,3-.48,6.11-.69,9.17-1,7.72-.7,15.44-1.36,23.17-2,5.13-.45,10.27-.9,15.4-1.32,2.75-.23,5.49-.49,8.25-.58,2.34-.09,2.79.4,2.86,2.78.06,2.19,0,4.39,0,6.59q0,17.57.07,35.14c0,1.92-.05,3.84-.12,5.76-.07,2.2-1,3.21-3.25,3.32-1.27.06-2.55-.08-3.83-.08-5.84,0-11.67,0-17.5.13a6.18,6.18,0,0,0-3.32,1.41c-1.66,1.3-1.48,3.14.18,4.46a8.52,8.52,0,0,0,5,1.52c5.89.45,11.79.8,17.69,1.24a36.39,36.39,0,0,1,5,.7c3.89.85,5.28,2.61,5.31,6.62,0,1.6-.17,3.2-.17,4.79q0,16.74,0,33.48c0,1.35.19,2.71.22,4.06.05,2.34-.56,3-2.93,3.12-1.79.07-3.59,0-5.39-.07-1.36,0-2.71-.18-4.07-.19H872.83c-1.28,0-2.56.07-3.84.07-2,0-3-.8-3.34-2.73-.35-2.21-.42-4.45-.72-6.67q-1.47-10.56-3-21.1c-.42-2.77.22-3.86,3-4.09a62.6,62.6,0,0,1,6.57,0c5.19.1,10.39.31,15.58.33,4.27,0,8.55-.09,12.81-.36a7.2,7.2,0,0,0,3.44-1.47c1.52-1.11,1.42-2.72,0-4a5.41,5.41,0,0,0-3.82-1.13q-18.66.09-37.3.21a39.44,39.44,0,0,1-4.07-.14c-1.74-.16-2.29-.79-2.38-2.53,0-.8-.08-1.59-.08-2.39Q855.69,399.88,855.7,385.36Z"/><path class="cls-4" d="M327.77,404.93c0-13,0-26.07,0-39.1,0-4.8-.21-9.59-.2-14.39a28.46,28.46,0,0,1,.57-5.11c.47-2.51,1.5-3.28,4.07-3.28h19.31c2.75,0,5.52-.2,8.26,0a13,13,0,0,1,4,1.37,1.71,1.71,0,0,1,.67,1.12,8.89,8.89,0,0,1,.07,1.79V424.1c0,1.28-.1,2.56-.07,3.84.05,2.05.78,2.95,2.81,3.44a14.49,14.49,0,0,0,2.36.37c4.62.34,9.24.65,13.87,1,2.63.18,5.25.33,7.88.53a6.83,6.83,0,0,1,1.52.35c2.19.67,3.06,1.81,3.06,4.12,0,3.8-.06,7.6-.07,11.39,0,3.64,0,7.27,0,10.91a6.42,6.42,0,0,1-.37,2,1.85,1.85,0,0,1-1.95,1.27q-25.55-.12-51.07-.19c-3.48,0-7,.23-10.42.19-3.14,0-4.21-1.18-4.29-4.34-.07-2.48,0-5,0-7.44Z"/><path class="cls-4" d="M742.67,462.78a3.91,3.91,0,0,1-3.92,3.92H720.62c-3.47,0-7,.23-10.42.19-3.14,0-4.2-1.18-4.29-4.34-.07-2.48,0-5,0-7.44V408.56c0-13,0-3.58,0-16.62,0-4.79-.21,4.37-.2-.42a28.57,28.57,0,0,1,.57-5.12,4,4,0,0,1,3.93-3.28h19.45c2.76,0,5.52-.21,8.26,0,1.37.09,4.76-.09,4.76,4.28v40.34C742.67,428.77,742.66,453.06,742.67,462.78Z"/><circle class="cls-4" cx="728.36" cy="355.43" r="17.28"/></svg>